<svg xmlns="http://www.w3.org/2000/svg" viewBox="0 0 1200 720" role="img" aria-labelledby="title desc">
  <title id="title">Abstract connection landscape</title>
  <desc id="desc">Layered topographic lines and connected points representing Country, school, community and digital support.</desc>
  <rect width="1200" height="720" fill="#f6f7f4"/>
  <path d="M-20 600 C160 530 240 650 405 575 C550 508 650 520 790 440 C930 358 1020 430 1220 300" fill="none" stroke="#d6a05f" stroke-width="30" opacity=".34"/>
  <path d="M-30 640 C140 590 260 674 415 610 C565 548 645 575 815 485 C960 408 1035 475 1230 345" fill="none" stroke="#26706f" stroke-width="16" opacity=".28"/>
  <g fill="none" stroke-linecap="round" opacity=".7">
    <path d="M78 165 C210 102 318 126 420 210 C510 284 645 246 730 158 C806 80 940 88 1086 155" stroke="#2f4b4b" stroke-width="3"/>
    <path d="M96 219 C224 160 315 188 408 258 C518 342 654 300 752 212 C828 144 936 142 1075 203" stroke="#50715a" stroke-width="3"/>
    <path d="M126 276 C248 220 338 245 426 309 C532 386 674 348 780 266 C865 202 965 204 1092 260" stroke="#b66b3c" stroke-width="3"/>
    <path d="M170 330 C284 278 372 302 460 362 C565 433 704 404 820 325 C915 260 1004 271 1115 318" stroke="#7b8c48" stroke-width="3"/>
    <path d="M215 391 C326 338 420 358 506 420 C608 493 748 461 864 384 C955 324 1034 337 1134 386" stroke="#2c6f7f" stroke-width="3"/>
  </g>
  <g stroke="#1e2c2e" stroke-width="4">
    <line x1="300" y1="245" x2="490" y2="356"/>
    <line x1="490" y1="356" x2="682" y2="270"/>
    <line x1="682" y1="270" x2="864" y2="390"/>
    <line x1="490" y1="356" x2="620" y2="500"/>
    <line x1="620" y1="500" x2="864" y2="390"/>
  </g>
  <g>
    <circle cx="300" cy="245" r="18" fill="#c85f3f"/>
    <circle cx="490" cy="356" r="22" fill="#26706f"/>
    <circle cx="682" cy="270" r="18" fill="#d6a05f"/>
    <circle cx="864" cy="390" r="22" fill="#607d3b"/>
    <circle cx="620" cy="500" r="18" fill="#1e5d76"/>
  </g>
  <g fill="#1e2c2e" font-family="Arial, sans-serif" font-weight="700">
    <text x="250" y="210" font-size="34">Country</text>
    <text x="455" y="322" font-size="34">School</text>
    <text x="635" y="235" font-size="34">Elders</text>
    <text x="816" y="356" font-size="34">Community</text>
    <text x="574" y="548" font-size="34">Online</text>
  </g>
</svg>
